<mxfile host="app.diagrams.net" modified="2024-01-24T05:59:37.934Z" agent="Mozilla/5.0 (Windows NT 10.0; Win64; x64) AppleWebKit/537.36 (KHTML, like Gecko) Chrome/120.0.0.0 Safari/537.36" version="22.1.16" etag="ZEerIfHl0L--dSBCqa50" type="github">
  <diagram name="第 1 页" id="3F7F6d88sAMbKbwHU9t8">
    <mxGraphModel>
      <root>
        <mxCell id="0" />
        <mxCell id="1" parent="0" />
      </root>
    </mxGraphModel>
  </diagram>
</mxfile>
